PathFileType	4	(X/Y/Z)	s11c0202.trc
DataRate	CameraRate	NumFrames	NumMarkers	Units	OrigDataRate	OrigDataStartFrame	OrigNumFrames
200	200	4	48	mm	200	500	2000
Frame#	Time	racr			lacr			c7			jug			rlel			rdr			llel			ldr			s2			lic			ric			lasi			rasi			rpsi			lpsi			rgt			lgt			rth1			rth2			rth3			rth4			rlfc			rmfc			rsh1			rsh2			rsh3			rsh4			rlmal			rcal			rtoe			rmt5			lth1			lth2			lth4			lth3			llfc			lmfc			llmal			lcal			lmt5			lsh1			lsh2			lsh3			lsh4			ltoe			SBIKE			LBIKE			RBIKE			
		X1	Y1	Z1	X2	Y2	Z2	X3	Y3	Z3	X4	Y4	Z4	X5	Y5	Z5	X6	Y6	Z6	X7	Y7	Z7	X8	Y8	Z8	X9	Y9	Z9	X10	Y10	Z10	X11	Y11	Z11	X12	Y12	Z12	X13	Y13	Z13	X14	Y14	Z14	X15	Y15	Z15	X16	Y16	Z16	X17	Y17	Z17	X18	Y18	Z18	X19	Y19	Z19	X20	Y20	Z20	X21	Y21	Z21	X22	Y22	Z22	X23	Y23	Z23	X24	Y24	Z24	X25	Y25	Z25	X26	Y26	Z26	X27	Y27	Z27	X28	Y28	Z28	X29	Y29	Z29	X30	Y30	Z30	X31	Y31	Z31	X32	Y32	Z32	X33	Y33	Z33	X34	Y34	Z34	X35	Y35	Z35	X36	Y36	Z36	X37	Y37	Z37	X38	Y38	Z38	X39	Y39	Z39	X40	Y40	Z40	X41	Y41	Z41	X42	Y42	Z42	X43	Y43	Z43	X44	Y44	Z44	X45	Y45	Z45	X46	Y46	Z46	X47	Y47	Z47	X48	Y48	Z48	
500	2.5000	475.454108	1419.294949	-94.933972	478.708334	1419.290774	-429.750848	393.026499	1527.954353	-266.733956	434.090144	1353.811040	-270.947334	540.230386	1156.457444	1.252578	764.905228	971.686366	-65.959840	495.998085	1130.874220	-578.833017	759.568151	963.062109	-493.124021	-125.531786	1199.833846	-237.925717	81.192890	1242.758039	-449.190989	103.617120	1207.647940	-50.553313	109.541352	1174.816789	-408.648453	136.570505	1145.650544	-86.507553	-79.087707	1269.523419	-183.623222	-97.152355	1269.976694	-274.663120	44.669025	1045.154904	-44.533722	6.475443	1128.526322	-468.066974	134.477655	930.533985	-44.093719	199.833131	871.698783	-56.995952	229.543269	791.643185	-78.145807	228.341280	894.201792	-66.371490	289.685338	705.722758	-100.664844	279.006572	686.057663	-223.482284	252.463199	551.993384	-78.735797	254.979860	465.359123	-95.315895	216.297587	386.975764	-93.668893	278.084505	462.747460	-127.856684	179.754546	254.176368	-103.471060	114.786480	245.173263	-148.886604	391.179809	167.604465	-149.991688	319.972641	151.686451	-78.824904	144.440176	1080.163803	-487.032466	229.833250	1074.006611	-487.730454	243.269186	1105.889541	-473.430361	303.951323	1024.204820	-498.289100	431.194785	957.270927	-481.879790	449.917672	946.549540	-352.002251	152.868499	639.244862	-424.002228	85.286977	630.767442	-382.532448	235.274076	488.918747	-453.110748	353.199375	861.390904	-490.398756	320.832144	784.824744	-467.618324	251.921263	730.698075	-455.429328	348.019175	769.699025	-444.994075	331.655316	462.477634	-388.633747	-215.098852	952.686786	-256.641949	-17.663443	80.931791	-461.038674	-17.742963	80.938622	-61.995742	
501	2.5050	476.889042	1419.087881	-97.033171	478.895722	1417.469195	-431.427772	393.960388	1527.165198	-268.566208	433.974129	1352.658085	-272.469835	540.804660	1156.375881	0.680217	764.846632	971.913645	-66.194496	494.644257	1128.915733	-580.954517	759.271298	963.221236	-493.192326	-125.367858	1199.894918	-236.852826	81.044733	1242.876206	-448.942368	103.909817	1207.845230	-49.979917	109.411897	1175.721354	-407.473492	136.885013	1146.147810	-85.707548	-78.844011	1269.679995	-182.573044	-97.322555	1270.189424	-273.364426	44.592217	1044.400011	-43.864002	6.665353	1129.772448	-467.314262	132.579738	928.877122	-43.811309	199.572488	870.699957	-55.593485	229.378882	790.537961	-76.747084	228.094930	893.276785	-64.978813	290.299315	705.178910	-98.919656	279.055299	685.499955	-222.588180	251.372568	551.672643	-78.063708	253.325022	465.125156	-94.684164	213.999101	387.032736	-93.209877	276.536971	462.415085	-127.204126	176.507070	254.491823	-103.415118	111.569785	246.750308	-148.836835	386.766397	164.971101	-149.824295	315.245920	150.083544	-78.772438	144.764165	1081.776417	-486.164115	230.164853	1075.815226	-486.874643	243.514925	1107.805536	-472.622093	304.403477	1026.251735	-497.498871	431.919831	959.929121	-481.616938	450.840980	949.262520	-351.675341	156.339187	639.568935	-424.026894	88.667751	630.374382	-382.636769	240.120428	490.213431	-453.224093	355.020577	863.347798	-490.119855	323.157122	786.681668	-467.497182	254.794898	731.920020	-455.193033	350.655410	771.692995	-444.583338	336.697717	464.917929	-388.805734	-215.079544	952.693361	-256.593695	-17.679868	80.928547	-461.016961	-17.745688	80.935859	-61.956197	
502	2.5100	478.218281	1419.045720	-99.206245	479.035708	1415.619702	-433.128640	394.901649	1526.047752	-270.375873	433.890461	1351.488231	-274.644793	541.325362	1156.140898	0.079225	764.625249	972.120270	-66.560155	493.201400	1126.844520	-583.127249	758.742008	963.375421	-493.012367	-125.233376	1199.878545	-235.759973	80.818286	1242.909702	-448.609664	104.250630	1208.061747	-49.530070	109.241926	1176.554909	-406.252667	137.249447	1146.630010	-85.063685	-78.570370	1269.652535	-181.473971	-97.259450	1270.517259	-272.244924	44.547129	1043.740106	-43.118685	6.805515	1130.884883	-466.532984	131.072654	925.908418	-42.257832	199.477313	869.856961	-54.206646	229.412396	789.765395	-75.361757	227.930070	892.402005	-63.587448	290.624934	704.531662	-97.654215	279.503017	685.095159	-221.582341	250.512482	551.660603	-77.360270	251.789248	464.894674	-94.059688	211.820420	387.373845	-92.754502	274.995906	462.168780	-126.610399	173.322336	255.139026	-103.082852	108.348822	248.349895	-148.741697	382.276628	162.460727	-149.828022	310.523986	148.589469	-78.682596	145.137277	1083.192759	-485.396749	230.485002	1077.432820	-486.119622	243.704488	1109.443247	-471.874321	304.828253	1028.045656	-496.656163	432.514174	962.391694	-481.354966	451.662295	951.782430	-351.335495	159.698664	639.624729	-424.042253	91.860426	629.737236	-382.725290	245.080258	491.417098	-453.473824	356.630070	865.241029	-489.806645	325.360495	788.240580	-467.281100	257.439739	732.936767	-454.974007	352.972566	773.526595	-444.429350	341.851422	467.296733	-388.817624	-215.082918	952.689811	-256.525763	-17.665963	80.944559	-461.033267	-17.767264	80.920378	-61.978516	
503	2.5150	479.614531	1418.822726	-101.321822	479.582060	1413.938402	-435.153974	395.878651	1524.966645	-272.479713	433.769350	1350.100687	-276.618926	541.668410	1155.961549	-0.282752	764.165414	972.206085	-67.215028	491.701652	1124.563006	-585.292416	758.515833	963.536977	-493.562453	-125.187152	1199.807153	-234.621894	80.512964	1242.916630	-448.335114	104.500066	1208.249510	-49.170559	108.905015	1177.227012	-404.841553	137.608616	1147.113160	-84.498540	-78.328860	1269.593972	-180.367613	-97.400878	1270.501597	-271.016623	44.645549	1043.100596	-42.228811	6.917261	1131.817262	-465.752675	131.147693	925.043842	-41.217467	199.571462	869.028210	-52.830516	229.645255	789.109499	-73.984541	227.960437	891.741146	-62.251437	291.247659	704.024288	-96.394282	280.022295	684.883936	-220.709428	249.775460	551.765624	-76.640394	250.365649	465.008018	-93.422116	209.828268	387.783140	-92.243253	273.625838	462.093940	-125.790716	170.352884	255.937460	-102.829773	105.299291	250.185579	-148.629227	377.761054	160.024429	-149.687379	305.824241	147.334115	-78.624600	145.328681	1084.309895	-484.633087	230.738933	1078.786709	-485.445039	243.897882	1110.916482	-471.175289	305.181565	1029.605613	-495.871573	432.904970	964.692738	-481.172774	452.279206	954.056941	-350.953291	162.861860	639.554891	-423.940106	94.945469	628.832309	-382.819502	249.935031	492.472231	-453.610274	358.006063	866.899428	-489.555153	327.337671	789.718342	-467.127908	259.843961	733.872551	-454.728231	355.141443	775.144246	-444.418844	346.980221	469.523738	-388.892794	-215.218106	952.810379	-256.412670	-17.665401	80.955505	-461.042644	-17.740818	80.945971	-61.959815	
